<?xml version="1.0" encoding="UTF-8"?>
<!--Generator: Apple Native CoreSVG 232.5-->
<!DOCTYPE svg
PUBLIC "-//W3C//DTD SVG 1.1//EN"
       "http://www.w3.org/Graphics/SVG/1.1/DTD/svg11.dtd">
<svg version="1.1" xmlns="http://www.w3.org/2000/svg" xmlns:xlink="http://www.w3.org/1999/xlink" width="11.7993" height="11.8259">
 <g>
  <rect height="11.8259" opacity="0" width="11.7993" x="0" y="0"/>
  <path d="M11.7993 8.74498L11.7957 1.12779C11.7957 0.477576 11.3648 0.0266409 10.6915 0.0266409L3.07119 0.0266409C2.44937 0.0266409 1.99623 0.503768 1.99623 1.06343C1.99623 1.61689 2.47291 2.06517 3.05742 2.06517L5.57724 2.06517L8.55317 1.95329L7.1562 3.16648L0.343513 9.99559C0.125155 10.2171 0 10.4873 0 10.7536C0 11.3009 0.505075 11.8259 1.06564 11.8259C1.34525 11.8259 1.60888 11.7074 1.83034 11.4891L8.65279 4.66307L9.8793 3.26609L9.74744 6.22205L9.74744 8.76851C9.74744 9.34636 10.1993 9.83325 10.7625 9.83325C11.3222 9.83325 11.7993 9.35702 11.7993 8.74498Z" fill="#000000"/>
 </g>
</svg>
