<?xml version="1.0" encoding="UTF-8"?><svg id="Calque_1" xmlns="http://www.w3.org/2000/svg" viewBox="0 0 354 281.6"><defs><style>.cls-1{fill:#f4daa9;}.cls-2{fill:#8d8d8f;}</style></defs><g><rect class="cls-1" x="285.2" y="247.8" width="68.8" height="29.2"/><rect class="cls-1" x="285.2" y="191" width="52.5" height="29.2"/><rect class="cls-1" x="285.2" y="133.2" width="68.8" height="29.2"/></g><path class="cls-2" d="M272.8,133.2v143.8h-28v-55.8c-19.6,36.4-54.4,60.4-104,60.4C60.4,281.6,0,219.2,0,142.8,0,60.4,63.6,0,142.8,0c59.2,0,114,34,129.2,94.8h-34c-13.6-44-54.8-65.2-94.8-65.2-62.8,0-111.2,47.2-111.2,113.2,0,59.2,45.2,109.2,108.8,109.2,55.6,0,90.8-38.8,98.4-89.6h-101.2v-29.2h134.8Z"/></svg>