<?xml version="1.0" encoding="UTF-8"?>
<!--Generator: Apple Native CoreSVG 232.5-->
<!DOCTYPE svg
PUBLIC "-//W3C//DTD SVG 1.1//EN"
       "http://www.w3.org/Graphics/SVG/1.1/DTD/svg11.dtd">
<svg version="1.1" xmlns="http://www.w3.org/2000/svg" xmlns:xlink="http://www.w3.org/1999/xlink" width="16.0976" height="16.0944">
 <g>
  <rect height="16.0944" opacity="0" width="16.0976" x="0" y="0"/>
  <path d="M8.04545 16.0909C12.4546 16.0909 16.0976 12.4546 16.0976 8.04545C16.0976 3.63633 12.4479 0 8.03879 0C3.63633 0 0 3.63633 0 8.04545C0 12.4546 3.64299 16.0909 8.04545 16.0909ZM8.04545 14.178C4.64958 14.178 1.92624 11.448 1.92624 8.04545C1.92624 4.64292 4.64292 1.91292 8.03879 1.91292C11.4413 1.91292 14.178 4.64292 14.178 8.04545C14.178 11.448 11.448 14.178 8.04545 14.178Z" fill="#ffffff"/>
  <path d="M4.96208 11.1208L11.1355 11.1208C11.9651 11.1208 12.4032 10.6827 12.4032 9.86324L12.4032 7.79513C12.4032 7.31801 12.3379 7.10496 12.1125 6.83022L10.9454 5.31507C10.4452 4.68918 10.2063 4.50498 9.51254 4.50498L6.58502 4.50498C5.89121 4.50498 5.64572 4.68918 5.15212 5.31507L3.97841 6.83022C3.7596 7.10496 3.69435 7.31801 3.69435 7.79513L3.69435 9.86324C3.69435 10.6827 4.13911 11.1208 4.96208 11.1208ZM4.95363 7.48488C4.81115 7.48488 4.78495 7.36193 4.85952 7.26783L6.11308 5.64134C6.24093 5.46732 6.38521 5.38875 6.60496 5.38875L9.49926 5.38875C9.71234 5.38875 9.86328 5.47398 9.98447 5.64134L11.2447 7.26783C11.3126 7.35527 11.2864 7.48488 11.1439 7.48488L9.2342 7.48488C9.01269 7.48488 8.91504 7.65756 8.91504 7.82357L8.91504 7.92478C8.91504 8.42018 8.58611 8.71359 8.04545 8.71359C7.51144 8.71359 7.18918 8.42018 7.18918 7.92478L7.18918 7.82357C7.18918 7.65756 7.0782 7.48488 6.86336 7.48488Z" fill="#ffffff"/>
 </g>
</svg>
